<?xml version="1.0" standalone="no"?>
<!DOCTYPE svg PUBLIC "-//W3C//DTD SVG 20010904//EN"
 "http://www.w3.org/TR/2001/REC-SVG-20010904/DTD/svg10.dtd">
<svg version="1.0" xmlns="http://www.w3.org/2000/svg"
 width="512.000000pt" height="512.000000pt" viewBox="0 0 512.000000 512.000000"
 preserveAspectRatio="xMidYMid meet">
<metadata>
Created by potrace 1.11, written by Peter Selinger 2001-2013
</metadata>
<g transform="translate(0.000000,512.000000) scale(0.100000,-0.100000)"
fill="#000000" stroke="none">
<path d="M2378 5115 c-2 -1 -39 -5 -82 -9 -44 -4 -82 -9 -85 -11 -4 -2 -34 -7
-66 -10 -117 -14 -472 -111 -499 -136 -6 -5 -16 -9 -23 -9 -8 0 -49 -16 -91
-35 -352 -161 -618 -354 -877 -637 -33 -36 -71 -80 -85 -98 -14 -18 -29 -38
-35 -44 -82 -92 -246 -369 -323 -546 -61 -142 -131 -351 -146 -443 -3 -15 -7
-35 -10 -45 -3 -9 -7 -34 -11 -56 -3 -21 -7 -41 -9 -45 -4 -6 -12 -72 -26
-201 -8 -78 -5 -466 4 -510 3 -14 10 -61 16 -105 15 -116 17 -127 55 -272 158
-604 545 -1139 1076 -1486 120 -79 261 -155 369 -202 36 -15 79 -34 96 -41
155 -68 445 -137 679 -163 127 -14 494 -6 620 13 474 73 893 258 1265 560 78
64 262 243 318 311 347 419 547 886 599 1395 12 116 8 515 -6 600 -6 41 -14
91 -17 110 -6 35 -39 176 -67 280 -59 219 -206 526 -351 733 -217 311 -480
557 -801 749 -66 39 -298 158 -310 158 -4 0 -21 6 -38 14 -137 62 -421 138
-607 162 -25 3 -56 8 -70 10 -27 6 -456 14 -462 9z"/>
</g>
</svg>
